<svg version="1.2" xmlns="http://www.w3.org/2000/svg" viewBox="0 0 320 240" width="320" height="240"><style>.a{fill:#202420}.b{fill:#f7fbf7}.c{fill:#979797}</style><path fill-rule="evenodd" class="a" d="m30 180h126c16.6 0 30 13.4 30 30 0 16.6-13.4 30-30 30h-126c-16.6 0-30-13.4-30-30 0-16.6 13.4-30 30-30z"/><path fill-rule="evenodd" class="b" d="m29 190h39c11 0 20 9 20 20 0 11-9 20-20 20h-39c-11 0-20-9-20-20 0-11 9-20 20-20z"/><path fill-rule="evenodd" class="c" d="m26.4 205.3c-0.8 0-1.4 0.3-1.4 1.2 0 0.9 1.3 1.2 2.5 1.8 2.4 1.2 4.1 2.3 4.1 4.8 0 3.2-2.3 5.1-5.4 5.1q-2.1 0-3.7-1.1-0.9-0.6-0.9-1.5c0-1.1 0.5-1.6 1.5-1.6q0.6 0 1.2 0.4c0.5 0.3 1.2 0.5 1.9 0.5 1.1 0 2-0.6 2-1.7 0-0.7-0.5-1.1-2.1-1.9-2-0.9-4.4-2.1-4.4-4.8 0-2.2 1.9-4.5 4.7-4.5 1.3 0 2.5 0.4 3.5 1.2q0.9 0.6 0.9 1.5c0 0.8-0.7 1.7-1.6 1.7-0.5 0-0.9-0.2-1.3-0.5q-0.6-0.6-1.5-0.6zm9.4 0.3h-1.9q-1.6 0-1.6-1.5c0-1.1 0.5-1.7 1.6-1.7h6.9c1.1 0 1.6 0.6 1.6 1.7 0 1-0.5 1.5-1.6 1.5h-1.8v10.7q0 1.7-1.6 1.7-1.6 0-1.6-1.7zm14.6 9.5h-5.1q-0.2 0.8-0.5 1.5-0.5 1.4-1.7 1.4c-1.1 0-1.5-0.8-1.5-1.6 0-0.2 0-0.5 0.1-0.7l4.2-11.9c0.3-0.9 1-1.4 1.9-1.4 1 0 1.6 0.5 2 1.4 4.4 12.1 4.4 12.4 4.4 12.6 0 0.9-0.5 1.6-1.5 1.6q-1.2-0.1-1.6-1.1zm-4-3.2h2.8c-0.5-1.6-0.6-1.8-1.4-4zm9.2-7.8c0-1.1 0.6-1.7 1.9-1.7h4c3.4 0 5.2 2.3 5.2 4.7 0 1.5-0.7 3.1-2.3 4.1l1.9 4.2c0.2 0.4 0.3 0.7 0.3 1.1 0 0.9-0.5 1.5-1.5 1.5-0.6 0-1.1-0.2-1.5-0.9l-2.5-5.1h-2.3v4.2q0 1.8-1.6 1.8-1.6 0-1.6-1.8zm3.2 1.6v3.2h2.9c1.1 0 1.8-0.9 1.8-1.8 0-0.7-0.6-1.4-1.8-1.4zm12.3 0h-1.8q-1.7 0-1.7-1.6c0-1.1 0.6-1.6 1.7-1.6h6.9c1 0 1.6 0.5 1.6 1.6 0 1-0.6 1.6-1.6 1.6h-1.9v10.6q0 1.7-1.5 1.7-1.7 0-1.7-1.7z"/><path class="b" d="m106 203.5c-0.4-1.4-1.4-2.2-2.6-2.2-1.4 0-2.2 0.8-2.5 2.5l-2.2 13.8q0 0.3 0 0.5c0 1.3 0.7 1.9 1.8 1.9 1.3 0 1.8-0.7 2-1.9l1.5-9.1 2.6 9.3c0.3 1.1 1 1.7 2 1.7 0.8 0 1.6-0.6 2-1.7 0.9-2.9 1.8-6.3 2.8-9.3l1.2 9.1c0.2 1.3 0.8 1.9 2 1.9 1.1 0 1.9-0.7 1.9-1.9q0-0.1 0-0.1v-0.1l-2.1-14c-0.2-1.7-1.1-2.6-2.5-2.6-1.2 0-2.2 0.7-2.6 2.2l-2.7 8.6zm14.6 14.4c0 1.7 0.3 2.1 2.1 2.1h6.9q2.1 0 2.1-1.9c0-1.3-0.7-1.9-2.1-1.9h-5.1v-3.9h3.9c1.2 0 1.9-0.7 1.9-1.9q0-2-1.9-2h-3.9v-3.2h4.9q2 0 2-1.9c0-1.4-0.7-2-2-2h-6.7q-2.1 0-2.1 2.1zm13 0.2q0 2 2 1.9 1.9 0.1 1.9-1.9v-9l6.6 9.8c0.6 0.8 1.3 1.1 2.1 1.1q1.9 0 1.9-2v-14.7c0-1.3-0.6-1.9-2-1.9q-1.8 0-1.9 1.9v9.1l-6.6-9.8q-0.8-1.2-2.1-1.3-1.9 0-1.9 2.1zm17.3-5.4c0 5.7 3.3 7.7 7.3 7.7 4 0 7.5-2 7.5-7.7v-9.2c0-1.4-0.7-2.1-2-2.1-1.3 0-2 0.7-2 2.1v9c0 3-1.4 3.8-3.3 3.8-1.8 0-3.5-0.8-3.5-3.8v-9c0-1.4-0.6-2.1-2-2.1-1.3 0-2 0.7-2 2.1z"/></svg>