<svg version="1.2" xmlns="http://www.w3.org/2000/svg" viewBox="0 0 320 240" width="320" height="240"><style>.a{fill:#202420}.b{fill:#f7fbf7}.c{fill:#979797}</style><path fill-rule="evenodd" class="a" d="m207 180h83c16.6 0 30 13.4 30 30 0 16.6-13.4 30-30 30h-83c-16.6 0-30-13.4-30-30 0-16.6 13.4-30 30-30z"/><path fill-rule="evenodd" class="b" d="m207 230c-11.1 0-20-8.9-20-20 0-11.1 8.9-20 20-20 11.1 0 20 8.9 20 20 0 11.1-8.9 20-20 20z"/><path fill-rule="evenodd" class="c" d="m210.6 217.1h-7.1c-0.3 0.7-0.5 1.4-0.8 2.1q-0.6 1.8-2.3 1.8c-1.6 0-2.2-1.1-2.2-2.2 0-0.3 0.1-0.7 0.2-0.9l5.9-16.7c0.4-1.3 1.4-2 2.7-2 1.3 0 2.2 0.7 2.7 2 6.2 16.9 6.2 17.3 6.2 17.6 0 1.3-0.7 2.2-2.1 2.2-1.1 0-1.8-0.5-2.2-1.4zm-5.6-4.6h3.9c-0.7-2.2-0.9-2.5-1.9-5.5z"/><path fill-rule="evenodd" class="b" d="m254.1 210.5c0 4.9-2.7 9.7-8.2 9.7-5.5 0-8.2-4.9-8.2-9.7 0-4.9 2.7-9.7 8.2-9.7 5.5 0 8.2 4.9 8.2 9.7zm-12.5-0.1c0 3 1.4 6 4.3 6 2.9 0 4.3-2.9 4.3-5.8 0-3-1.4-5.9-4.3-5.9-2.9 0-4.3 2.8-4.3 5.7zm14.7-7.1c0-1.3 0.7-2 2-2h5c3.7 0 6.3 2.5 6.3 6.2 0 3.4-2.6 6-6.1 6h-3.4v4.6c0 1.3-0.6 1.9-1.9 1.9-1.3 0-1.9-0.6-1.9-1.9zm3.8 1.8v4.5h3.3c1.4 0 2.3-0.8 2.3-2.2 0-1.5-0.9-2.3-2.7-2.3zm11.5-1.7c0-1.4 0.7-2.1 2-2.1h6.8c1.3 0 1.9 0.6 1.9 1.9q0 1.9-1.9 1.9h-5v3.3h3.9q1.9 0 1.9 1.9c0 1.3-0.6 1.9-1.9 1.9h-3.9v3.9h5.1c1.4 0 2.1 0.6 2.1 1.9q0 1.9-2.1 1.9h-6.9c-1.8 0-2-0.4-2-2.1zm13 0q0-2.1 1.9-2.1 1.2 0 2.1 1.3l6.6 9.8v-9.1q0-2 1.9-2c1.3 0 1.9 0.7 1.9 2v14.6q0 2.1-1.9 2.1c-0.8 0-1.5-0.4-2-1.1l-6.7-9.8v8.9q0 2-1.9 2-1.9 0-1.9-2z"/></svg>