<svg version="1.2" xmlns="http://www.w3.org/2000/svg" viewBox="0 0 320 240" width="320" height="240"><style>.a{fill:#202420}.b{fill:#f7fbf7}.c{fill:#979797}</style><path fill-rule="evenodd" class="a" d="m75 180h215c16.6 0 30 13.4 30 30 0 16.6-13.4 30-30 30h-215c-16.6 0-30-13.4-30-30 0-16.6 13.4-30 30-30z"/><path fill-rule="evenodd" class="b" d="m207 230c-11.1 0-20-8.9-20-20 0-11.1 8.9-20 20-20 11.1 0 20 8.9 20 20 0 11.1-8.9 20-20 20z"/><path class="c" d="m218.1 218.5l-8.3-8.3 8.4-8.4-2.8-2.8-8.4 8.4-8.2-8.2-2.8 2.8 8.2 8.2-8.2 8.2 2.8 2.7 8.2-8.2 8.3 8.4z"/><path fill-rule="evenodd" class="b" d="m254.1 210.5c0 4.9-2.7 9.7-8.2 9.7-5.5 0-8.2-4.9-8.2-9.7 0-4.9 2.7-9.7 8.2-9.7 5.5 0 8.2 4.9 8.2 9.7zm-12.5-0.1c0 3 1.4 6 4.3 6 2.9 0 4.3-2.9 4.3-5.8 0-3-1.4-5.9-4.3-5.9-2.9 0-4.3 2.8-4.3 5.7zm14.7-7.1c0-1.3 0.7-2 2-2h5c3.7 0 6.3 2.5 6.3 6.2 0 3.4-2.6 6-6.1 6h-3.4v4.6c0 1.3-0.6 1.9-1.9 1.9-1.3 0-1.9-0.6-1.9-1.9zm3.8 1.8v4.5h3.3c1.4 0 2.3-0.8 2.3-2.2 0-1.5-0.9-2.3-2.7-2.3zm11.5-1.7c0-1.4 0.7-2.1 2-2.1h6.8c1.3 0 1.9 0.6 1.9 1.9q0 1.9-1.9 1.9h-5v3.3h3.9q1.9 0 1.9 1.9c0 1.3-0.6 1.9-1.9 1.9h-3.9v3.9h5.1c1.4 0 2.1 0.6 2.1 1.9q0 1.9-2.1 1.9h-6.9c-1.8 0-2-0.4-2-2.1zm13 0q0-2.1 1.9-2.1 1.2 0 2.1 1.3l6.6 9.8v-9.1q0-2 1.9-2c1.3 0 1.9 0.7 1.9 2v14.6q0 2.1-1.9 2.1c-0.8 0-1.5-0.4-2-1.1l-6.7-9.8v8.9q0 2-1.9 2-1.9 0-1.9-2z"/><path fill-rule="evenodd" class="b" d="m75 230c-11.1 0-20-8.9-20-20 0-11.1 8.9-20 20-20 11.1 0 20 8.9 20 20 0 11.1-8.9 20-20 20z"/><path fill-rule="evenodd" class="c" d="m87.4 210.2c0 6.8-5.5 12.4-12.4 12.4-6.8 0-12.4-5.6-12.4-12.4 0-6.9 5.6-12.5 12.4-12.5 6.9 0 12.4 5.6 12.4 12.5zm-4 0c0-4.7-3.7-8.4-8.4-8.4-4.6 0-8.4 3.7-8.4 8.4 0 4.6 3.8 8.4 8.4 8.4 4.7 0 8.4-3.8 8.4-8.4z"/><path fill-rule="evenodd" class="b" d="m106.5 203.5c0-1.4 0.7-2.1 2-2.1h4.3c2.4 0 5.9 1.3 5.9 5 0 1.2-1.2 3.1-2.3 3.2 2 0.3 3.6 2.8 3.6 4.7 0 3.3-2.7 5.7-5.8 5.7h-5.3c-0.8 0-1.3-0.1-1.6-0.4-0.5-0.3-0.8-0.9-0.8-1.8zm3.8 12.7h3.7c1.4 0 2.2-1 2.2-2.1 0-1.2-1-2.4-3-2.4h-2.9zm2.8-7.4c1.3 0 1.9-0.8 1.9-1.7 0-0.9-0.7-1.8-2.1-1.8h-2.6v3.5zm18.8 7.9h-6.1c-0.3 0.6-0.5 1.2-0.7 1.8q-0.5 1.6-2 1.6c-1.3 0-1.9-0.9-1.9-1.9 0-0.3 0.1-0.6 0.2-0.8l5-14.3c0.4-1.1 1.2-1.7 2.4-1.7 1.1 0 1.9 0.6 2.3 1.7 5.3 14.5 5.3 14.9 5.3 15.1 0 1.1-0.6 1.9-1.8 1.9-1 0-1.6-0.5-1.9-1.3zm-4.8-3.8h3.4c-0.7-1.9-0.8-2.3-1.7-4.8zm22.8 1.8c1.3 0 1.9 0.9 1.9 1.9 0 0.7-0.2 1.2-0.7 1.7-1.6 1.4-3.4 2.1-5.5 2.1-5.8 0-8.7-4.8-8.7-9.6 0-4.9 3-9.9 8.8-9.9 2.1 0 3.9 0.7 5.5 2.1q0.7 0.7 0.7 1.6c0 1.3-0.8 2-1.9 2-0.4 0-1.1-0.2-1.4-0.5-0.8-0.8-1.9-1.2-3-1.2-3.1 0-4.7 2.9-4.7 5.7 0 2.9 1.6 5.7 4.8 5.7 1.1 0 2.1-0.3 2.8-1 0.5-0.5 0.9-0.6 1.4-0.6zm3.9-11.4c0-1.2 0.6-1.8 1.9-1.8q1.9 0 1.9 1.8v5.2l5.9-6.4c0.3-0.5 0.8-0.6 1.3-0.6 1 0 2 1 2 2 0 0.5-0.2 1-0.6 1.4-1.5 1.7-2.5 2.7-4.1 4.5l4.6 7.6c0.4 0.4 0.5 0.8 0.5 1.3 0 1.2-1.4 1.9-1.9 1.9-0.8 0-1.2-0.4-1.7-0.9l-4.3-7-1.7 1.8v4.2q0 1.9-1.9 1.9-1.9 0-1.9-1.9z"/></svg>