<svg version="1.2" xmlns="http://www.w3.org/2000/svg" viewBox="0 0 300 256" width="300" height="256"><style>.a{fill:#f7fbf7}.b{fill:none;stroke:#f7fbf7;stroke-linecap:round;stroke-linejoin:round;stroke-width:4}</style><path class="a" d="m181 103c2 0 13.7 0 16 0 2 0 4 2 4 4v72c0 2.2-1.8 4-4 4h-16c-2.2 0-4-1.8-4-4v-72c0-2 2-4 4-4zm-72 0c12.1 0 12 0 12 3v41c0 7 0 14 8 14 7.3 0 8-7 8-14v-41c0-3 0-3 12-3 12 0 12 0 12 3v48c0 18.2-16.5 31-32 31-15.5 0-32-12.8-32-31v-48c0-3 0.1-3 12-3z"/><path class="b" d="m101 73l8 16zm0 16v-16zm8 0l8-16zm8-16v16zm32 0v16zm34 0l12 16zm0 16v-16zm12 0v-16z"/></svg>