<svg version="1.2" xmlns="http://www.w3.org/2000/svg" viewBox="0 0 1280 720" width="1280" height="720"><style>.a{fill:#666}.b{fill:#f7fbf7}.c{fill:none;stroke:#f7fbf7;stroke-linecap:round;stroke-linejoin:round;stroke-width:8}</style><path fill-rule="evenodd" class="a" d="m640 457.1q0 3.9 4.6 3.9c3.3 0 4.9-1.3 4.9-3.9v-38.5h25.6c3.2 0 4.8-1.6 4.8-4.7 0-3.2-1.6-4.9-4.8-4.9h-25.6v-34h33.8c3.3 0 4.8-1.6 4.8-4.7 0-3.2-1.5-4.8-4.8-4.8h-38c-3.5 0-5.3 2.1-5.3 6.2zm58.4-0.7q0 4.6 4.7 4.6c3.2 0 4.8-1.5 4.8-4.6v-40.5c0-10 9.8-18.8 18.1-18.8 4.4 0 5.3 0.9 8.8 0.9 3 0 5-2.4 5-5 0-2.8-2.5-5.9-9.4-5.9-8.7 0-17.8 4-22.5 12.5v-6.2c0-3.3-1.6-5-4.8-5q-4.7 0-4.7 5zm77.3-69.3c-20.5 0-31.2 18.5-31.2 37.7 0 19.2 10.7 37.7 31.2 37.7 20.4 0 31.2-17.4 31.2-36.8 0-19.2-10.7-38.6-31.2-38.6zm0 9.3c14.6 0 21.3 17 21.3 30.1 0 13.5-6.6 27.1-21.3 27.1-14.8 0-21.1-16.5-21.1-29.7 0-13.5 6.3-27.5 21.1-27.5zm44.9 60q0 4.6 4.6 4.6c3.3 0 4.8-1.5 4.8-4.6v-40.5c0-12.8 8.9-19.4 17.8-19.4 8.7 0 17.3 6.4 17.3 19.4v40.5q0 4.6 4.6 4.6c3.3 0 4.8-1.5 4.8-4.6v-44.6c0-15.4-12.7-24.7-25.1-24.7-7.6 0-15.1 3.5-19.4 11.3v-4.9c0-3.4-1.5-5.1-4.8-5.1q-4.6 0-4.6 5.1zm73.9-66.7h-4.8c-2.7 0-4 1.4-4 4.2 0 3 1.6 4.4 4.7 4.4h4.1v39.6c0 15.1 3.5 24.3 18.9 24.3 3.7 0 5.6-1.6 5.6-4.6 0-2.8-1.9-4.2-5.6-4.2-8.6 0-9.5-5.2-9.5-15.5v-39.5h11.6c3.3 0 4.8-1.4 4.8-4.4 0-2.9-1.7-4.3-5-4.3h-11.4v-10.6c0-3.1-1.5-4.7-4.7-4.7q-4.7 0-4.7 4.7zm66.3-2.7c-20.1 0-31.2 18.9-31.2 37.9 0 20.4 12 37.7 33.3 37.7 11.5 0 20.4-3.9 26.4-11.5 0.7-0.7 0.9-1.6 0.9-2.6 0-3-1.8-4.4-4.2-4.4-1.8 0-3.9 0.8-5.6 2.3-5.8 5.2-10.3 6.6-17.5 6.6-11.5 0-23.1-11.7-23.1-23.3h43.6c6.1 0 7.2-3.5 7.2-10.5 0-18.8-10.7-32.2-29.8-32.2zm-20.9 33.4c0-12.9 8.9-23.9 21.3-23.9 12.3 0 19.9 10.7 19.9 23.9zm67.6 36q0 4.6 4.6 4.6c3.2 0 4.8-1.5 4.8-4.6v-40.5c0-12.8 8.9-19.4 17.8-19.4 8.6 0 17.3 6.3 17.3 19.4v40.5q0 4.6 4.6 4.6c3.2 0 4.8-1.5 4.8-4.6v-44.7c0-15.3-12.8-24.6-25.2-24.6-7.6 0-15.1 3.5-19.3 11.2v-4.9c0-3.3-1.6-5-4.8-5q-4.6 0-4.6 5zm118.9-57.3c-3.7-8-13.3-11.9-21-11.9-20 0-29.9 20.1-29.9 38.7 0 18.8 9.8 36.8 29.9 36.8 9.5 0 16.6-6 21-12.9v8.7c0 3 1.7 4.4 4.9 4.4q4.7 0 4.7-4.3v-93.3q0-5-4.7-5c-3.2 0-4.9 1.7-4.9 5zm-21.1 55c-13.3 0-19.9-13.9-19.9-28.1 0-14.6 7-29.4 20.4-29.4 10.5 0 20.9 10.5 20.9 28.7 0 18.1-10.9 28.8-21.4 28.8zm-465.3 51.5c0 1.2 0.1 1.5 1.3 1.5h10.5q1.4 0 1.4-1.2 0-1.3-1.4-1.3h-9.4v-9.2h7.5q1.2 0 1.2-1.2 0-1.2-1.2-1.2h-7.5v-8.3h9.1q1.3 0 1.2-1.2 0.1-1.2-1.2-1.2h-10.2q-1.3 0-1.3 1.5zm16.4 0.2q0 1.3 1.3 1.3 1.2 0 1.2-1.3v-10.1c0-2.8 1.8-5.2 4.6-5.2 2.5 0 4 2 4 4.4v10.9q-0.1 1.3 1.2 1.3 1.2 0 1.2-1.3v-10.1c0-2.8 1.8-5.2 4.7-5.2 2.4 0 3.9 2 3.9 4.4v10.9q0 1.2 1.2 1.2 1.3 0 1.3-1.2v-12c0-3.5-2.9-5.9-6.3-5.9-2.5 0-4.8 1.4-5.9 3.5-0.8-2.1-2.8-3.5-5-3.5-2 0-4 1.2-4.9 3v-1.3c0-0.9-0.4-1.4-1.2-1.4q-1.3 0-1.3 1.5zm30.7-16.3q0-1.2-1.3-1.2-1.2 0-1.2 1.2v10.5c0 5.5 3.2 7.6 6.5 7.6 1.9 0 4-1.1 5.4-3.5v2.3q0 1.1 1.3 1.1 1.2 0 1.2-1.1v-17q0-1.3-1.2-1.3c-0.9 0-1.2 0.5-1.2 1.3v8.4c0 4.7-2.7 7.2-5.2 7.2-2.2 0-4.3-0.9-4.3-6.1zm15.3 16.3q0 1.3 1.2 1.3 1.2 0 1.2-1.3v-23.7q0-1.2-1.2-1.2-1.2 0-1.2 1.2zm9.3-16.8c-0.6 0.3-0.9 0.8-0.9 1.2 0 0.8 0.5 1.1 1.1 1.1 1 0 2.5-0.8 4.6-0.8 3.2 0 5.1 1.5 5.1 3.8v3.2c-1.1-1.1-3.2-1.7-5.1-1.7-3.5 0-7.1 2-7.1 6 0 3.7 3.1 5.5 6.4 5.5 2.2 0 4.3-0.8 5.8-2.3 0 0.3 0 0.5 0 1.1 0 0.7 0.4 1.2 1.2 1.2 0.8 0 1.3-0.6 1.3-1.2v-12c0-3.4-2.4-6.1-6.8-6.1-2.3 0-4.1 0.4-5.6 1zm0.2 12.5c0-2.3 2.3-3.4 4.6-3.4 2.5 0 5 1.2 5 3.2 0 2.4-2.7 3.7-5.2 3.7-2.3 0-4.4-1-4.4-3.5zm18.3-12.9h-1.3q-1 0-1 1.1 0 1.1 1.2 1.1h1.1v10.3c0 3.9 0.9 6.3 4.9 6.3q1.4 0 1.4-1.2 0-1.1-1.4-1.1c-2.3 0-2.5-1.3-2.5-4v-10.3h3q1.3 0 1.3-1.1 0-1.2-1.3-1.1h-3v-2.8q0-1.2-1.2-1.2-1.2 0-1.2 1.2zm11.2 17.3q0 1.2 1.3 1.2 1.2 0 1.2-1.2v-16.6c0-0.8-0.4-1.2-1.3-1.2q-1.2 0-1.2 1.2zm-0.5-23.3c0 0.9 0.7 1.6 1.7 1.6 0.9 0 1.6-0.7 1.6-1.6 0-1-0.7-1.7-1.6-1.7-1 0-1.7 0.7-1.7 1.7zm15.8 5.4c-5.3 0-8.1 4.8-8.1 9.8 0 5 2.8 9.7 8.1 9.7 5.3 0 8.1-4.5 8.1-9.5 0-5-2.8-10-8.1-10zm0 2.4c3.8 0 5.5 4.4 5.5 7.8 0 3.5-1.7 7-5.5 7-3.9 0-5.5-4.3-5.5-7.7 0-3.5 1.6-7.1 5.5-7.1zm11.7 15.6q0 1.2 1.2 1.2 1.2 0 1.2-1.2v-10.5c0-3.4 2.3-5.1 4.6-5.1 2.3 0 4.5 1.7 4.5 5.1v10.5q0 1.2 1.2 1.2 1.3 0 1.3-1.2v-11.6c0-4-3.4-6.4-6.6-6.4-1.9 0-3.9 0.9-5 2.9v-1.3q0-1.3-1.2-1.3-1.2 0-1.2 1.3zm29.5-20.3c0.5 0.3 0.9 0.6 1.3 0.6 0.7 0 1.1-0.7 1.1-1.3 0-0.6-0.3-1.2-0.9-1.6-1.9-1-3.9-1.5-5.7-1.5-4.2 0-7.5 2.5-7.5 6.9 0 3.5 3.7 5.4 6.9 7.1 2.7 1.3 5.1 2.6 5.1 4.6 0 3.2-2.5 4.5-5.4 4.5-1.5 0-3.2-0.4-4.5-1.3q-0.6-0.4-1.1-0.4-1.2 0-1.2 1.2 0 0.8 0.9 1.5c1.7 1.1 3.7 1.6 5.8 1.6 4.6 0 8.2-2.4 8.2-7.2 0-3.5-3.2-5.2-6.2-6.8-2.9-1.5-5.8-2.8-5.8-4.9 0-2.4 2.1-4.2 4.3-4.2 1.7 0 3.6 0.5 4.7 1.2zm6.7 3h-1.2q-1 0-1 1.1 0 1.2 1.2 1.2h1v10.2c0 4 0.9 6.3 4.9 6.3q1.5 0 1.5-1.1 0-1.1-1.5-1.1c-2.2 0-2.4-1.4-2.4-4.1v-10.2h3q1.2 0 1.2-1.2 0-1.1-1.3-1.1h-2.9v-2.7q0-1.2-1.3-1.2-1.2 0-1.2 1.2zm11.6 0.4c-0.6 0.3-0.9 0.8-0.9 1.2 0 0.8 0.5 1.1 1.1 1.1 1 0 2.4-0.8 4.6-0.8 3.2 0 5 1.5 5 3.8v3.2c-1.1-1.1-3.1-1.7-5-1.7-3.5 0-7.1 2-7.1 6 0 3.7 3.1 5.6 6.4 5.6 2.2 0 4.3-0.9 5.7-2.4 0 0.3 0 0.5 0.1 1.1 0 0.7 0.4 1.3 1.2 1.3 0.8 0 1.3-0.6 1.3-1.3v-12c0-3.4-2.4-6.1-6.8-6.1-2.4 0-4.1 0.4-5.6 1zm0.2 12.6c0-2.4 2.2-3.5 4.6-3.5 2.5 0 5 1.2 5 3.3 0 2.3-2.7 3.6-5.2 3.6-2.3 0-4.4-1-4.4-3.4zm18.3-13h-1.3q-1 0-1 1.1 0 1.1 1.2 1.1h1.1v10.3c0 3.9 0.9 6.3 4.8 6.3q1.5 0 1.5-1.2 0-1.1-1.5-1.1c-2.2 0-2.4-1.3-2.4-4v-10.3h3q1.3 0 1.3-1.1 0-1.1-1.4-1.1h-2.9v-2.8q0-1.2-1.2-1.2-1.2 0-1.2 1.2zm11.2 17.3q0 1.2 1.2 1.2 1.3 0 1.3-1.2v-16.5c0-0.9-0.4-1.3-1.3-1.3-0.8 0-1.2 0.4-1.2 1.3zm-0.5-23.4c0 0.9 0.7 1.6 1.6 1.6 1 0 1.7-0.7 1.7-1.6 0-1-0.7-1.7-1.7-1.7-0.9 0-1.6 0.7-1.6 1.7zm15.8 5.4c-5.3 0-8.1 4.8-8.1 9.8 0 5 2.8 9.8 8.1 9.8 5.3 0 8.1-4.6 8.1-9.6 0-5-2.8-10-8.1-10zm0 2.4c3.8 0 5.5 4.4 5.5 7.8 0 3.5-1.7 7-5.5 7-3.9 0-5.5-4.2-5.5-7.7 0-3.5 1.6-7.1 5.5-7.1zm11.6 15.6q0 1.2 1.2 1.2 1.3 0 1.3-1.2v-10.5c0-3.4 2.3-5.1 4.6-5.1 2.3 0 4.5 1.7 4.5 5.1v10.5q0 1.2 1.2 1.2 1.3 0 1.2-1.2v-11.6c0-4-3.3-6.4-6.5-6.4-2 0-3.9 0.9-5 2.9v-1.3q0-1.3-1.3-1.3-1.2 0-1.2 1.3zm28.1-0.1c0 1.1 0.4 1.3 1.5 1.3h6.5c6.5 0 10.6-6 10.6-12.3 0-6.1-3.4-12.4-10-12.4h-6.6q-2 0-2 1.6zm8.3-21c5.1 0 7.7 4.9 7.7 10 0 5-2.9 9.9-8.2 9.9h-5.3v-19.9zm22 3.1c-5.2 0-8.1 4.9-8.1 9.9 0 5.2 3.1 9.7 8.6 9.7 3 0 5.3-1 6.9-2.9q0.3-0.3 0.2-0.7c0-0.8-0.4-1.2-1.1-1.2-0.4 0-1 0.2-1.4 0.6-1.5 1.4-2.7 1.8-4.6 1.8-2.9 0-6-3.1-6-6.1h11.4c1.5 0 1.8-0.9 1.8-2.7 0-4.9-2.7-8.4-7.7-8.4zm-5.4 8.7c0-3.4 2.3-6.2 5.5-6.2 3.2 0 5.2 2.8 5.2 6.2zm19.9 6.9q-0.5-0.3-1-0.4c-0.6 0-1.1 0.5-1.1 1.4 0 0.4 0.1 0.8 0.4 1 1.9 1.2 3.8 2 6.2 2 3.3 0 7-1.5 7-5.6 0-3-2.9-4.2-5.6-5.4-2.5-1-5.1-1.8-5.1-3.3 0-2 2-2.7 4-2.7 1.6 0 3.2 0.4 4 0.9 0.2 0.1 0.5 0.2 0.7 0.2 0.7 0 1.2-0.4 1.2-1.2 0-0.5-0.2-1-0.7-1.2-1.6-0.9-3.4-1.2-5.1-1.2-3.6 0-6.8 1.7-6.8 5.5 0 2.8 3.7 4.3 6.8 5.4 1.7 0.6 3.8 1.6 3.8 3.2 0 2.2-2.3 2.9-4.1 2.9-1.9 0-3.5-0.7-4.6-1.5zm16.8-14.9h-1.3q-1 0-1 1.1 0 1.2 1.2 1.2h1.1v10.2c0 4 0.9 6.3 4.9 6.3q1.4 0 1.4-1.1 0-1.1-1.4-1.1c-2.2 0-2.5-1.4-2.5-4.1v-10.2h3q1.3 0 1.3-1.2 0-1.1-1.3-1.1h-3v-2.7q0-1.2-1.2-1.2-1.2 0-1.2 1.2zm10.7 17.3q0 1.2 1.2 1.2c0.9 0 1.3-0.4 1.3-1.2v-5l3.6-3.4 6.3 8.9c0.2 0.5 0.8 0.8 1.2 0.8 0.6 0 1.2-0.4 1.2-1.3 0-0.5-0.3-1-0.6-1.4-1.9-2.8-4.1-5.8-6.1-8.7l5.3-5c0.4-0.4 0.7-0.8 0.7-1.2 0-0.7-0.6-1.1-1.2-1.1q-0.5 0-0.9 0.3l-9.5 9v-15.6q0-1.3-1.3-1.2-1.2 0-1.2 1.2zm25.3-18c-5.4 0-8.1 4.8-8.1 9.8 0 5 2.7 9.8 8.1 9.8 5.3 0 8.1-4.6 8.1-9.6 0-5-2.8-10-8.1-10zm0 2.4c3.7 0 5.5 4.4 5.5 7.8 0 3.5-1.7 7.1-5.5 7.1-3.9 0-5.5-4.3-5.5-7.7 0-3.6 1.6-7.2 5.5-7.2zm11.6 23.1q0 1.4 1.2 1.4c0.7 0 1.3-0.5 1.3-1.3v-9.3c1 2.1 3.1 3.3 5.5 3.3 5.2 0 7.8-4.8 7.8-9.7 0-4.8-2.6-9.9-7.8-9.9-2.3 0-4.8 1.7-5.5 3.9v-2.6q0-1.3-1.2-1.3-1.3 0-1.3 1.3zm8.3-8.2c-3.9 0-5.6-3.8-5.6-7.4 0-3.5 1.7-7.4 5.6-7.4 3.7 0 5 4.2 5 7.5 0 3.4-1.3 7.3-5 7.3zm21.5 0.4c0 1.2 0.1 1.5 1.3 1.5h10.5q1.4 0 1.4-1.2 0-1.3-1.4-1.3h-9.4v-9.2h7.5q1.3 0 1.3-1.1 0-1.3-1.3-1.3h-7.5v-8.3h9.1q1.3 0 1.3-1.2 0-1.2-1.3-1.2h-10.2q-1.3 0-1.3 1.5zm29.7-14.6c-1-2.1-3.5-3.1-5.5-3.1-5.2 0-7.8 5.2-7.8 10.1 0 4.9 2.6 9.5 7.8 9.5 2.5 0 4.3-1.5 5.5-3.3v2.2q0 1.2 1.3 1.2 1.2 0 1.2-1.1v-24.3q0-1.3-1.2-1.3-1.3 0-1.3 1.3zm-5.5 14.3c-3.5 0-5.2-3.6-5.2-7.3 0-3.8 1.8-7.6 5.3-7.6 2.8 0 5.4 2.7 5.4 7.4 0 4.7-2.8 7.5-5.5 7.5zm12.2 0.6q0.1 1.2 1.3 1.2 1.3 0 1.3-1.2v-16.6c0-0.8-0.5-1.2-1.3-1.2-0.8 0-1.3 0.4-1.3 1.2zm-0.5-23.3c0 0.9 0.8 1.6 1.7 1.6 1 0 1.7-0.7 1.7-1.6 0-1-0.7-1.7-1.7-1.7-0.9 0-1.7 0.7-1.7 1.7zm10 6.1h-1.2q-1.1 0-1.1 1.1 0 1.1 1.3 1.1h1v10.3c0 3.9 0.9 6.3 4.9 6.3q1.5 0 1.5-1.2 0-1.1-1.5-1.1c-2.2 0-2.4-1.3-2.4-4v-10.3h3q1.2 0 1.2-1.1 0-1.2-1.3-1.1h-2.9v-2.8q0-1.2-1.3-1.2-1.2 0-1.2 1.2zm11.2 17.3q0.1 1.2 1.3 1.2 1.3 0 1.3-1.2v-16.6c0-0.8-0.5-1.2-1.3-1.2-0.8 0-1.3 0.4-1.3 1.2zm-0.5-23.3c0 0.9 0.8 1.6 1.7 1.6 1 0 1.7-0.7 1.7-1.6 0-1-0.7-1.7-1.7-1.7-0.9 0-1.7 0.7-1.7 1.7zm15.9 5.4c-5.4 0-8.1 4.8-8.1 9.8 0 5 2.7 9.8 8.1 9.8 5.3 0 8.1-4.6 8.1-9.6 0-5-2.8-10-8.1-10zm0 2.4c3.7 0 5.5 4.4 5.5 7.8 0 3.5-1.7 7-5.5 7-3.9 0-5.5-4.2-5.5-7.7 0-3.5 1.6-7.1 5.5-7.1zm11.6 15.6q0 1.2 1.2 1.2 1.3 0 1.3-1.2v-10.5c0-3.4 2.3-5.1 4.6-5.1 2.2 0 4.5 1.7 4.5 5.1v10.5q0 1.2 1.2 1.2 1.2 0 1.2-1.2v-11.6c0-4-3.3-6.4-6.5-6.4-2 0-3.9 0.9-5 2.9v-1.3q0-1.3-1.3-1.3-1.2 0-1.2 1.3z"/><path fill-rule="evenodd" class="a" d="m637 210c0-6 2.8-9 8.2-9h60.8c5 0 7.4 2.4 7.4 7.4 0 4.8-2.4 7.2-7.4 7.2h-54.4v49.2h44.8c5 0 7.4 2.6 7.4 7.6 0 4.6-2.4 7-7.4 7h-44.8v55h56c5.8 0 8.6 2.4 8.6 7.4 0 4.8-2.8 7.2-8.6 7.2h-62.4c-7.2 0-8.2-1.8-8.2-9zm141.2 3.2c-13.2 0-25.4 10.8-25.4 25 0 12.8 17.2 20.2 34.2 29.4 18 9.8 37.2 19.6 37.2 40.4 0 28.6-21.4 43.4-49 43.4-12.6 0-24.2-3.4-34.4-10-3.6-2.4-5.4-5.4-5.4-8.8 0-4.6 2.2-6.8 6.8-6.8 2.2 0 4.6 0.8 7 2.4 7.8 4.8 17.8 7.6 26.6 7.6 17.4 0 32.2-7.6 32.2-26.8 0-12-14.4-19.6-30-27.8-19.6-10.2-41.6-21.4-41.6-42.2 0-26.2 20-41.4 45-41.4 10.8 0 22.6 3 34 9.2 3.8 2.2 5.6 5.8 5.6 9.2 0 4-2.8 7.8-7 7.8-2.4 0-4.8-1.8-7.6-3.6-6.4-4-17.8-7-28.2-7zm117.4 72.8c5.8 0 8.6 2.6 8.6 7.8 0 5-2.8 7.4-8.6 7.4h-41.2c-5.8 0-8.8-2.4-8.8-7.4 0-4 3.4-7.8 8.8-7.8zm29.8-75.4c0-6.4 3.8-9.6 11.6-9.6h39.6c39.4 0 59.6 38 59.6 74.6 0 37.4-24.4 73.4-63.6 73.4h-38.8c-6.4 0-8.4-1.2-8.4-8.2zm14.8 5v118.8h31.4c31.8 0 48.8-29.2 48.8-58.8 0-30.4-15.4-60-46-60zm117-5.6c0-6 2.8-9 8.2-9h60.8c5 0 7.4 2.4 7.4 7.4 0 4.8-2.4 7.2-7.4 7.2h-54.4v49.2h44.8c5 0 7.4 2.6 7.4 7.6 0 4.6-2.4 7-7.4 7h-44.8v55h56c5.8 0 8.6 2.4 8.6 7.4 0 4.8-2.8 7.2-8.6 7.2h-62.4c-7.2 0-8.2-1.8-8.2-9z"/><path class="b" d="m392.7 284.1c5.9 0 40.3 0 47 0 5.9 0 11.8 5.9 11.8 11.8v211.4c0 6.5-5.3 11.8-11.8 11.8h-47c-6.4 0-11.7-5.3-11.7-11.8v-211.4c0-5.9 5.8-11.8 11.7-11.8zm-211.5 0c35.6 0 35.3 0 35.3 8.8v120.4c0 20.6 0 41.2 23.5 41.2 21.4 0 23.5-20.6 23.5-41.2v-120.4c0-8.8 0-8.8 35.2-8.8 35.3 0 35.3 0 35.3 8.8v141c0 53.5-48.5 91.1-94 91.1-45.5 0-94-37.6-94-91.1v-141c0-8.8 0.3-8.8 35.2-8.8z"/><path class="c" d="m157.7 196l23.5 47zm0 47v-47zm23.5 0l23.5-47zm23.5-47v47zm94 0v47zm99.9 0l35.2 47zm0 47v-47zm35.3 0v-47z"/></svg>