<svg version="1.2" xmlns="http://www.w3.org/2000/svg" viewBox="0 0 120 120" width="120" height="120"><style>.a{fill:#202420}.b{fill:none;stroke:#f7fbf7;stroke-linecap:round;stroke-linejoin:bevel;stroke-width:4}.c{fill:#f7fbf7}.d{fill:none;stroke:#f7fbf7;stroke-miterlimit:100;stroke-width:4}</style><path fill-rule="evenodd" class="a" d="m60 120c-33.2 0-60-26.8-60-60 0-33.2 26.8-60 60-60 33.2 0 60 26.8 60 60 0 33.2-26.8 60-60 60z"/><path fill-rule="evenodd" class="b" d="m33 42h54c1.7 0 3 1.3 3 3v30c0 1.7-1.3 3-3 3h-54c-1.7 0-3-1.3-3-3v-30c0-1.7 1.3-3 3-3z"/><path fill-rule="evenodd" class="c" d="m38 47h44c1.7 0 3 1.3 3 3v20c0 1.7-1.3 3-3 3h-44c-1.7 0-3-1.3-3-3v-20c0-1.7 1.3-3 3-3zm2 8l24 15v-8l16 4-24-17v9.1z"/><path fill-rule="evenodd" class="c" d="m38 47h44c1.7 0 3 1.3 3 3v20c0 1.7-1.3 3-3 3h-44c-1.7 0-3-1.3-3-3v-20c0-1.7 1.3-3 3-3zm2 8l24 15v-8l16 4-24-17v9.1z"/><path fill-rule="evenodd" class="d" d="m27 54h1c0.6 0 1 0.4 1 1v10c0 0.6-0.4 1-1 1h-1c-0.6 0-1-0.4-1-1v-10c0-0.6 0.4-1 1-1z"/></svg>